<mxfile host="app.diagrams.net" modified="2023-08-30T05:06:25.823Z" agent="Mozilla/5.0 (Windows NT 10.0; Win64; x64) AppleWebKit/537.36 (KHTML, like Gecko) Chrome/116.0.0.0 Safari/537.36" version="21.7.0" etag="beDCIl7hpuI0ML0CL9LC" type="github">
  <diagram name="Page-1" id="fqf2jRWZV2c5N1RpfVEU">
    <mxGraphModel>
      <root>
        <mxCell id="0" />
        <mxCell id="1" parent="0" />
      </root>
    </mxGraphModel>
  </diagram>
</mxfile>
